<svg class="icon icon-pinterest" xmlns="http://www.w3.org/2000/svg" width="14.772" height="19.2" viewBox="0 0 14.772 19.2">
  <g id="pinterest-p" transform="translate(-4.801 -2.4)">
    <path id="Vector" d="M14.772,6.313c0,3.589-1.835,7.571-5.92,7.571A3.12,3.12,0,0,1,6.186,12.5c-.877,3.474-.808,3.993-2.747,6.647-.2.073-.135.088-.265-.058C3.1,18.361,3,17.646,3,16.919c0-2.354,1.085-5.759,1.616-8.044a4.519,4.519,0,0,1-.369-1.95c0-3.077,3.612-3.539,3.612-.992,0,1.5-1.016,2.908-1.016,4.362a1.708,1.708,0,0,0,1.777,1.685c2.654,0,3.474-3.831,3.474-5.874,0-2.735-1.939-4.224-4.559-4.224a5.2,5.2,0,0,0-5.4,5.286c0,1.489.912,2.25.912,2.608,0,.3-.219,1.362-.6,1.362C1.523,11.137,0,9.6,0,6.89,0,2.631,3.9,0,7.848,0c3.624,0,6.924,2.493,6.924,6.313Z" transform="translate(4.801 2.4)" fill="#1f1f1f"/>
  </g>
</svg>