<svg id="favorite" class="icon icon-favorite" xmlns="http://www.w3.org/2000/svg" width="20" height="20" viewBox="0 0 20 20">
  <rect id="favorite_Frame_Background_" data-name="favorite [Frame Background]" width="20" height="20" fill="none"/>
  <path id="Vector" d="M16.08,1.42A4.849,4.849,0,0,1,17.5,4.844c0,5.469-8.109,9.9-8.454,10.078a.625.625,0,0,1-.592,0C8.109,14.739,0,10.313,0,4.844A4.849,4.849,0,0,1,4.844,0,4.8,4.8,0,0,1,8.75,1.866,4.8,4.8,0,0,1,12.656,0,4.849,4.849,0,0,1,16.08,1.42Zm.17,3.423A3.6,3.6,0,0,0,12.656,1.25,3.482,3.482,0,0,0,9.328,3.359a.625.625,0,0,1-1.156,0A3.485,3.485,0,0,0,4.844,1.25,3.6,3.6,0,0,0,1.25,4.844c0,4.195,6.073,7.981,7.5,8.813,1.425-.832,7.5-4.624,7.5-8.812Z" transform="translate(1.25 2.5)" fill="#696c70"/>
</svg>
