<svg class="icon icon-youtube" xmlns="http://www.w3.org/2000/svg" width="19.2" height="13.5" viewBox="0 0 19.2 13.5">
  <g id="youtube" transform="translate(-2.4 -4.801)">
    <path id="Vector" d="M18.8,2.112a25.308,25.308,0,0,1,.4,4.651,25.308,25.308,0,0,1-.4,4.651A2.377,2.377,0,0,1,17.1,13.1c-1.5.4-7.5.4-7.5.4s-6,0-7.5-.4A2.377,2.377,0,0,1,.4,11.415,25.308,25.308,0,0,1,0,6.764,25.308,25.308,0,0,1,.4,2.112,2.413,2.413,0,0,1,2.1.4C3.6,0,9.6,0,9.6,0s6,0,7.5.4a2.412,2.412,0,0,1,1.7,1.708ZM7.636,9.618l5.018-2.855L7.636,3.909v5.71Z" transform="translate(2.4 4.801)" fill="#1f1f1f"/>
  </g>
</svg>
