<svg class="icon icon-twitter" xmlns="http://www.w3.org/2000/svg" width="19.2" height="15.594" viewBox="0 0 19.2 15.594">
  <g id="twitter" transform="translate(-2.4 -4.801)">
    <path id="Vector" d="M17.226,3.886c.012.171.012.341.012.512a11.119,11.119,0,0,1-11.2,11.2A11.12,11.12,0,0,1,0,13.827a8.139,8.139,0,0,0,.95.049,7.881,7.881,0,0,0,4.885-1.681A3.942,3.942,0,0,1,2.156,9.466a4.962,4.962,0,0,0,.743.061,4.162,4.162,0,0,0,1.036-.134A3.936,3.936,0,0,1,.78,5.531V5.482a3.963,3.963,0,0,0,1.779.5A3.941,3.941,0,0,1,1.34.719,11.185,11.185,0,0,0,9.454,4.837a4.442,4.442,0,0,1-.1-.9,3.939,3.939,0,0,1,6.81-2.692,7.747,7.747,0,0,0,2.5-.95,3.924,3.924,0,0,1-1.73,2.169A7.889,7.889,0,0,0,19.2,1.852a8.459,8.459,0,0,1-1.974,2.034Z" transform="translate(2.4 4.801)" fill="#1f1f1f"/>
  </g>
</svg>