<svg class="icon icon-instagram" xmlns="http://www.w3.org/2000/svg" width="19.2" height="19.196" viewBox="0 0 19.2 19.196">
  <g id="instagram" transform="translate(-2.4 -2.4)">
    <path id="Vector" d="M14.524,9.6A4.922,4.922,0,1,1,9.6,4.676,4.914,4.914,0,0,1,14.524,9.6ZM9.6,12.8A3.2,3.2,0,1,0,6.4,9.6,3.205,3.205,0,0,0,9.6,12.8Zm6.271-8.322a1.148,1.148,0,1,1-1.148-1.148A1.145,1.145,0,0,1,15.873,4.475Zm3.26,1.165c.09,1.585.09,6.331,0,7.916a5.718,5.718,0,0,1-1.551,4.022,5.681,5.681,0,0,1-4.022,1.551c-1.585.09-6.335.09-7.92,0a5.725,5.725,0,0,1-4.022-1.551A5.681,5.681,0,0,1,.067,13.556c-.09-1.585-.09-6.335,0-7.92A5.7,5.7,0,0,1,1.618,1.614,5.71,5.71,0,0,1,5.64.067c1.585-.09,6.335-.09,7.92,0a5.718,5.718,0,0,1,4.022,1.551A5.681,5.681,0,0,1,19.133,5.64ZM17.471,9.6c0-1.4.116-4.395-.385-5.658A3.239,3.239,0,0,0,15.26,2.115C14,1.618,11,1.729,9.6,1.729s-4.395-.116-5.658.385A3.239,3.239,0,0,0,2.119,3.94C1.622,5.2,1.734,8.2,1.734,9.6s-.116,4.395.385,5.658a3.239,3.239,0,0,0,1.825,1.825c1.259.5,4.262.385,5.658.385s4.395.116,5.658-.385a3.239,3.239,0,0,0,1.825-1.825c.5-1.259.385-4.262.385-5.658Z" transform="translate(2.4 2.4)" fill="#1f1f1f"/>
  </g>
</svg>